<svg xmlns="http://www.w3.org/2000/svg" width="50mm" height="50mm" viewBox="0 0 50 50"><defs><clipPath><path fill="none" stroke="#000" stroke-width=".113" d="M-356.54 159.1H-89.8v199.37h-266.74z"/></clipPath><clipPath id="a"><path fill="none" stroke="#000" stroke-width=".115" d="M558.1-24.12h9.74v9.9h-9.74z" opacity=".5"/></clipPath></defs><g><path fill="#fff" d="M1.13 25.2C1.23 25.07 23.8 6.06 25.6 6c1.52-.04 13.53 5.38 21.38 11.6 1.66 1.3 1.88 3.87 1.53 5.72-.13.73.54-.42.32.5-.04.16-.1 4.02-.3 5.26-.15.8-.45-.84-.48-.74-.73 2.18-1.97 3.3-1.9 3.33 1.2 12.74-16.17 16.8-22.97 16.83-.52-.33-10.94 1.12-14.1-1.24-5.62-4.2-4.93-10.62-7.45-15.52.4-2.52-.1-4.13-.25-4.64z"/><g fill="#1665a9" stroke="#fff" stroke-width=".2" transform="matrix(4.796 0 0 4.796 -2675.118 116.376)" clip-path="url(#a)"><path d="M583.04-14c-.15-.05-.4-.17-.55-.27-.3-.2-.67-.85-.57-1.02.04-.05.28-.1.55-.1.4 0 .53.06.78.33.3.32.78.42 1.22.25.24-.1.48-.6.48-1.04v-.38l-.4.27c-.27.2-.52.26-.9.26-1.14 0-1.78-.66-1.86-1.9-.1-1.52.6-2.47 1.86-2.47.38 0 .63.07.9.26.38.24.4.24.4.04 0-.18.07-.2.6-.2h.57v2.28c0 1.7-.04 2.38-.14 2.64-.2.44-.72.88-1.23 1.02-.45.13-1.33.14-1.73 0zm1.4-2.78c.54-.3.67-1.4.23-2-.3-.42-1-.45-1.37-.07-.26.26-.27.33-.23 1.03.03.63.08.78.28.95.28.22.77.26 1.08.1zM559.2-14.4c-.62-.32-.85-.94-.96-2.6-.06-.76-.08-1.43-.04-1.5.03-.04.4-.08.8-.08.67 0 .75.02.83.24.1.26 1.07 3.94 1.07 4.05 0 .16-1.34.07-1.7-.1zm2.98-.05c0-.37.72-4.84.9-5.52.07-.33.16-.5.2-.42.02.1.25.8.5 1.55.47 1.48.65 1.86.9 1.86.2 0 .44-.38.53-.85.1-.6.23-.73.43-.44.23.33.64.32.86-.02.14-.22.25-.26.7-.26.36 0 .53.04.58.16.03.08 0 .8-.05 1.6-.12 1.55-.24 1.9-.8 2.32-.28.2-.46.23-2.53.26l-2.22.03zm16.43-1.04c-.5-.1-.75-.3-.94-.66l-.18-.35v.89h-1.28v-1.36c-.02-1.33-.02-1.35-.15-.76-.17.75-.58 1.4-1.16 1.77-.43.3-.47.3-2.28.32l-1.85.04v-6.09l1.74.05c1.68.03 1.75.04 2.3.34.64.36 1.06.92 1.25 1.68l.12.56v-.45l.02-.47h1.28v1.47c0 .8.04 1.4.07 1.3.02-.1.17-.3.3-.45.28-.28.74-.43 1.77-.56 1.1-.15 1.1-1.02 0-1.02-.4 0-.48.04-.64.32-.17.3-.23.3-.74.32-.54 0-.57-.02-.57-.27 0-.37.55-.95 1.04-1.1 1-.3 2.5-.03 2.77.48.05.1.12 1.02.14 2.03l.04 1.83h-.56c-.4 0-.58-.05-.62-.16-.05-.12-.12-.12-.4.04-.4.23-1.07.33-1.5.23zm1.58-1.05c.12-.1.23-.4.26-.65l.06-.45-.36.07c-1.18.24-1.4.4-1.35.82.08.5.98.64 1.4.2zm-6.12-.37c.53-.27.72-.73.72-1.66 0-1.4-.42-1.82-1.78-1.9l-.82-.05V-16.64l.77-.05c.42-.02.92-.12 1.1-.22zm18 1.38c-.67-.18-1.1-.5-1.36-1.05l-.23-.44v1.42h-1.28v-1.53c0-1.4-.02-1.56-.22-1.75-.3-.3-.8-.28-1.12.05-.25.25-.26.3-.26 1.75v1.5h-1.28v-4.37h.6c.55 0 .57 0 .57.3v.27l.25-.22c.4-.35.67-.45 1.22-.45.54 0 1.1.26 1.3.6.05.1.13.38.17.6l.08.4.18-.4c.35-.77 1.08-1.2 2.03-1.2.83 0 1.45.37 1.84 1.1l.17.33v-.28c0-.36.38-.82.82-1 .5-.22 1.7-.2 2.16.03.37.2.86.8.86 1.07 0 .1-.17.14-.58.14-.5 0-.6-.02-.65-.2-.12-.4-1.15-.44-1.37-.08-.15.25.1.46.73.6 1.64.4 1.98.65 1.98 1.42 0 .9-.75 1.48-1.95 1.5-.86 0-1.37-.18-1.76-.63l-.33-.36-.4.42c-.55.53-1.35.72-2.16.5zm5.18-.93c.08-.07.15-.23.15-.36 0-.27-.46-.5-1.23-.64-.23-.04-.62-.2-.87-.32l-.45-.24v.62l-1.57.03-1.58.04.1.35c.12.48.68.72 1.27.55.22-.07.46-.22.53-.33.12-.18.26-.2 1.15-.2.94 0 1.02 0 1.1.23.22.47 1 .62 1.4.28zm-3.68-1.94c0-.1-.1-.28-.22-.44-.43-.54-1.38-.3-1.63.4-.06.16.03.18.9.18.73 0 .95-.04.95-.15zm-32.38 2.13c-.1-.37-.27-1.07-.4-1.56-.32-1.36-.23-1.3-1.53-1.3h-1.1v-.92c0-1.05.2-2.22.5-2.72.45-.8 1.98-1.1 5.23-1 2.12.07 2.6.15 3.07.57.6.5.8 1.1.85 2.5l.04 1.26h-.7c-.4 0-.8.06-.92.14-.2.12-.25.1-.5-.2-.4-.54-.77-.46-.92.2-.04.16-.12.3-.17.3-.05 0-.35-.76-.65-1.68-.3-.93-.6-1.76-.65-1.87-.1-.2-.44-.24-.6-.05-.05.07-.3 1.4-.54 2.95-.55 3.53-.65 4.04-.75 4.04-.04 0-.16-.3-.25-.67zm15.08-4.48c-.03-.1-.04-.3-.02-.5.03-.36.04-.37.64-.4l.62-.03v1.07h-.6c-.4 0-.6-.05-.64-.15z"/><path d="M582.9-14.1c-.5-.22-.86-.6-.97-.95-.06-.23-.04-.24.52-.24.48 0 .63.06.85.28.27.26.78.35 1.18.2.25-.1.48-.6.48-1.1v-.43l-.22.22c-.48.48-1.36.56-2.03.2-1.33-.77-1.2-3.4.2-4 .7-.3 1.67-.1 1.95.36.1.16.1.15.1-.1 0-.3.03-.3.6-.3h.58v2.2c0 1.22-.05 2.4-.1 2.6-.3 1.04-1.97 1.6-3.14 1.06zm1.75-2.84c.22-.23.26-.4.26-.95 0-.56-.03-.7-.25-.94-.33-.35-1.04-.4-1.33-.08-.43.48-.43 1.57 0 2.05.3.3 1 .28 1.33-.07zm-25.43 2.53c-.68-.35-.86-.93-1-3.25l-.05-.83h1.65l.52 1.94c.28 1.07.53 2.03.56 2.13.04.15-.04.18-.63.18-.43 0-.8-.07-1.05-.2zm3.8.1c-.55-.03-.82-.08-.82-.17 0-.22.74-4.78.88-5.44l.14-.65.5 1.55c.73 2.28 1.07 2.54 1.5 1.17.23-.66.23-.66.43-.44.25.28.66.28.83 0 .1-.17.25-.2.73-.2h.6l-.04 1.14c-.06 1.6-.2 2.23-.56 2.58-.5.5-1.15.58-4.18.45zM578-15.82c-.2-.18-.4-.43-.4-.56-.04-.13-.06 0-.07.27v.5h-1.18v-4.37h1.18v1.52c0 .83.03 1.42.06 1.3.12-.52.68-.87 1.58-.97.82-.1 1.3-.3 1.3-.54 0-.3-.22-.54-.52-.57-.6-.04-.76 0-.93.33-.17.3-.23.3-.76.32h-.57l.07-.34c.04-.2.15-.44.25-.55.76-.86 3.17-.8 3.5.1.08.17.15 1.1.16 2.04l.04 1.72h-.55c-.38 0-.57-.05-.6-.16-.05-.12-.13-.1-.46.06-.26.13-.62.2-1.06.2-.6 0-.7-.04-1.04-.32zm2.25-.8c.15-.17.24-.4.24-.65 0-.37 0-.37-.4-.3-1.13.2-1.3.3-1.3.8 0 .56 1 .67 1.45.15zm11.52 1c-.4-.16-.86-.62-1.08-1.1l-.2-.43v1.54h-1.28v-1.52c0-1.8-.08-2-.75-2-.3 0-.46.07-.63.28-.2.26-.22.43-.22 1.76v1.47h-1.28v-4.37h.6c.55 0 .57 0 .57.3v.27l.25-.22c.54-.48 1.24-.6 1.95-.3.38.16.78.8.8 1.27 0 .13.1.03.24-.26.36-.7.98-1.1 1.76-1.15.88-.07 1.5.22 1.93.9.28.45.32.47.32.22 0-.4.47-.9 1-1.05.54-.14 1.6-.08 2.02.12.33.17.64.55.75.93.07.23.04.24-.5.24-.5 0-.6-.02-.67-.2-.13-.4-1.12-.47-1.37-.1-.17.3.1.48.93.7.43.1.94.26 1.16.36.94.48.76 1.84-.3 2.3-.4.17-1.7.2-2.13.03-.36-.15-.88-.63-.88-.82 0-.24-.15-.16-.34.17-.26.47-.9.75-1.7.74-.36 0-.8-.06-.93-.12zm5.36-.74c.3-.14.4-.44.24-.68-.07-.1-.5-.27-.98-.4-.47-.1-1-.3-1.2-.4l-.35-.2v.52h-1.53c-.93 0-1.57.04-1.6.1-.04.07 0 .3.12.5.32.66 1.14.75 1.7.2.24-.25.34-.27 1.25-.27.96 0 1 .02 1.05.27.1.4.78.6 1.28.37zm-3.55-2.05c0-.1-.1-.28-.22-.44-.17-.2-.32-.28-.63-.28-.23 0-.5.03-.58.07-.15.06-.5.56-.5.73 0 .03.44.06.97.06.74 0 .96-.04.96-.15zM561.03-17c-.18-.77-.4-1.56-.48-1.76l-.15-.36h-2.28l.07-1.25c.1-2.02.46-2.83 1.4-3.1.9-.25 2.46-.36 4.3-.3 2.63.1 3.1.27 3.6 1.35.22.5.28.8.32 1.8l.04 1.18h-.7c-.4 0-.8.06-.92.14-.2.12-.25.1-.5-.2-.4-.54-.77-.46-.94.2-.04.16-.1.3-.16.3-.05 0-.33-.75-.63-1.66-.28-.92-.57-1.75-.63-1.87-.13-.23-.45-.27-.62-.07-.08.1-1.2 6.57-1.2 6.94 0 .03-.03.05-.1.05-.04 0-.23-.63-.42-1.4zm9.78-1.64v-3.03h1.48c1.73 0 2.4.15 3 .7.6.55.87 1.28.87 2.32 0 1.44-.47 2.34-1.44 2.8-.5.22-.67.24-2.2.24h-1.7zm3.37 1.7c.45-.3.72-1.03.66-1.82-.1-1.25-.64-1.74-1.92-1.74h-.7v3.86l.84-.05c.55-.02.94-.1 1.13-.23zm2.18-4.2v-.53h1.18v1.06h-1.18z"/><path d="M583-14.06c-.5-.18-.87-.52-1-.92l-.1-.3h.58c.5 0 .62.03.8.26.17.2.3.27.68.27.7 0 1-.34 1-1.1 0-.3-.04-.5-.07-.42-.1.22-.86.56-1.27.56-1.16 0-1.95-1.04-1.84-2.4.1-1.35 1.04-2.15 2.24-1.93.2.04.5.2.64.35l.28.27v-.3c0-.26.02-.27.6-.27h.57v2.24c0 2.38-.06 2.74-.56 3.27-.46.5-1.75.7-2.56.4zm1.67-2.93c.56-.6.32-1.88-.4-2.1-.75-.26-1.4.42-1.28 1.36.13 1.13.97 1.5 1.67.75zm-25.4 2.58c-.42-.2-.64-.5-.85-1.17-.04-.13-.1-.84-.14-1.56l-.07-1.32h1.6l.53 2c.3 1.1.54 2.05.57 2.12.07.22-1.12.17-1.63-.06zm4.02.12c-.6-.02-1.1-.07-1.1-.1 0-.05.16-1.14.37-2.43.4-2.58.64-3.7.72-3.46.03.1.25.77.5 1.5.46 1.47.65 1.8.95 1.8.25 0 .36-.18.53-.92l.13-.56.33.27c.33.27.53.24.82-.1.1-.12.32-.18.7-.18h.55l-.03.5c-.02.3-.05.92-.08 1.43-.06 1.13-.33 1.8-.83 2.07-.38.2-1.64.26-3.58.18zm15-1.3c-.65-.27-.92-1.38-.46-1.95.24-.32.6-.45 1.64-.6.4-.07.8-.18.88-.24.2-.15.17-.56-.04-.73-.4-.33-1.42-.04-1.42.4 0 .1-.17.15-.6.15-.47 0-.57-.04-.57-.2 0-.3.4-.85.76-1.05.5-.27 2.15-.27 2.56 0 .54.36.6.53.62 2.44l.04 1.8h-.56c-.43 0-.56-.04-.56-.17 0-.2-.03-.2-.53.06-.44.2-1.35.27-1.77.1zm1.7-.76c.3-.14.5-.5.5-1v-.34l-.46.1c-1.05.24-1.2.33-1.23.72-.05.57.53.82 1.2.52zm11.77.7c-.5-.23-.84-.56-1.08-1.06l-.2-.43v1.54h-1.16l-.03-1.54c-.03-1.32-.06-1.56-.23-1.75-.3-.32-.9-.3-1.24.05-.23.25-.25.37-.3 1.76l-.04 1.5h-1.16v-4.37h.6c.55 0 .57 0 .57.3v.27l.25-.22c.5-.46 1.27-.58 1.94-.3.38.16.63.53.74 1.16l.08.4.24-.52c.67-1.46 2.82-1.62 3.67-.27l.3.46.05-.3c.14-.68.85-1.07 1.93-1.07.57 0 1.3.27 1.53.55.08.1.18.32.24.5l.1.33H598c-.48 0-.58-.02-.62-.2-.13-.48-1.27-.54-1.42-.1-.1.32.24.6.83.7.84.13 1.55.45 1.72.78.23.44.2.87-.08 1.3-.33.48-.73.65-1.63.7-.92.05-1.64-.2-1.92-.72-.1-.18-.2-.32-.24-.32-.03 0-.14.14-.24.3-.4.67-1.75.97-2.63.6zm5.6-.86c.08-.1.14-.23.14-.28 0-.23-.46-.5-1.17-.66-.43-.1-.94-.28-1.13-.4l-.35-.2v.54h-3.2l.05.35c.04.2.2.45.35.6.24.2.37.23.75.2.27-.04.57-.16.7-.28.2-.18.44-.24 1.26-.3l1.02-.07.07.27c.03.14.17.3.3.38.33.17 1.06.08 1.23-.15zm-3.8-1.93c0-.5-.66-.85-1.23-.66-.3.1-.68.52-.68.78 0 .03.43.06.96.06.84 0 .96-.03.95-.2zm-22.73-.15l.03-3.02h1.6c1.77 0 2.2.1 2.77.62.68.6.84 1.04.84 2.36 0 1.12-.02 1.2-.33 1.76-.23.4-.5.68-.84.9-.5.32-.52.32-2.3.36l-1.8.03zm3.34 1.66c.53-.4.7-.85.65-1.77-.07-1.34-.54-1.8-1.86-1.8h-.77V-16.65l.84-.04c.64 0 .92-.08 1.14-.24zm2.17-.85v-2.17h1.18V-15.6h-1.18zM561.2-16.3c-.08-.34-.23-.97-.32-1.4-.1-.45-.26-.95-.37-1.13l-.18-.32H558.2l.03-1.16c.03-1.4.3-2.48.73-2.8.94-.76 6.5-.9 7.74-.2.32.16.52.4.75.83.27.54.3.75.36 1.84l.07 1.22h-.72c-.4 0-.8.06-.93.12-.18.1-.24.1-.32-.04-.17-.32-.42-.5-.67-.5-.2 0-.28.08-.38.42-.07.24-.17.43-.2.43-.06 0-.3-.72-.58-1.58-.27-.86-.56-1.7-.63-1.83-.15-.32-.5-.4-.7-.2-.1.12-1.18 6.44-1.18 6.85 0 .02-.04.04-.1.04-.04 0-.16-.3-.25-.62zm15.15-4.82v-.53h1.18v1.06h-1.18z"/><path d="M583.03-14.07c-.53-.17-1.05-.67-1.05-1 0-.2.08-.22.54-.22.45 0 .58.06.8.3.18.23.33.3.68.3.63 0 .96-.4.96-1.13v-.54l-.32.27c-.6.5-1.56.5-2.2-.06-.7-.62-.86-2.02-.33-3 .5-.9 1.86-1.2 2.56-.52l.3.28v-.28c0-.28.02-.3.6-.3h.57v2.1c0 2.23-.07 2.78-.4 3.22-.46.6-1.75.9-2.7.6zm1.38-2.64c.38-.2.56-.6.56-1.2s-.18-.98-.55-1.17c-.4-.22-.66-.2-1.02.12-.57.48-.58 1.52-.02 2.08.34.34.62.38 1.05.16zm-24.93 2.36c-.4-.12-.84-.6-1-1.14-.06-.2-.14-.98-.17-1.7l-.07-1.3.8.02.77.04.5 1.86c.28 1.02.53 1.97.56 2.1.06.22.04.24-.5.23-.3 0-.7-.06-.9-.1zm4.08.04l-1.36-.04.05-.34c.03-.2.15-1 .27-1.78.33-2.2.65-3.85.74-3.75.05.03.23.56.42 1.16.52 1.7.7 2.05 1.02 2.05.3 0 .5-.32.64-1.1l.08-.4.28.28c.36.34.44.34.75 0 .2-.2.36-.26.78-.26h.53l-.05 1.4c-.05 1.7-.26 2.34-.85 2.6-.44.17-1.5.24-3.3.18zm14.64-1.4c-.2-.12-.4-.3-.47-.43-.16-.3-.13-1.1.06-1.37.23-.34.5-.45 1.5-.6.5-.1.96-.2 1.05-.28.37-.3 0-.95-.57-.95-.38 0-.78.23-.84.5-.06.22-.13.25-.65.25-.6 0-.6 0-.53-.3.2-.8 1-1.23 2.2-1.16.8.05 1.22.22 1.5.6.16.23.2.54.22 2.05l.02 1.8h-.56c-.43 0-.56-.04-.56-.17 0-.2 0-.2-.55.06-.6.26-1.42.26-1.86 0zm2.1-.86c.12-.15.2-.42.2-.7 0-.46 0-.46-.3-.37-.16.05-.46.12-.67.16-.2.03-.47.12-.57.2-.26.18-.25.7 0 .9.3.2 1.1.1 1.34-.2zm11.4.86c-.52-.25-.87-.62-1.05-1.15l-.15-.4v1.64H589.33l-.04-1.54c-.04-1.74-.13-1.98-.8-1.98-.82 0-1 .38-1 2.26v1.25h-1.17l.04-2.16.03-2.15.55-.05c.56-.03.56-.03.56.3v.3l.33-.3c.4-.36.8-.47 1.44-.38.52.08.97.44 1.06.85.2.95.15.9.36.43.34-.76 1.2-1.32 2.04-1.32.7 0 1.42.46 1.8 1.17.17.32.2.34.2.12 0-.4.3-.85.66-1.04.72-.37 2.1-.3 2.63.15.12.1.3.36.38.58l.18.4h-.56c-.48 0-.58-.03-.67-.23-.22-.5-1.43-.48-1.43.02 0 .3.35.5 1.26.7 1.04.23 1.45.58 1.45 1.23 0 1-.8 1.53-2.14 1.45-.9-.06-1.4-.3-1.65-.8l-.17-.32-.36.42c-.2.24-.5.5-.7.57-.5.2-1.4.18-1.9-.05zm5.6-.76c.46-.46.2-.7-1.12-1.06-.83-.22-1.04-.32-1.3-.64-.12-.13-.13-.1-.07.24l.08.4h-3.24l.06.35c.15.77 1.1 1.1 1.74.56.25-.22.47-.28 1.28-.34l.98-.08.1.28c.13.34.4.5.9.5.25 0 .46-.08.6-.22zm-3.74-2.13c-.23-.66-1.23-.8-1.68-.23-.4.5-.32.57.8.57h1zm-22.75.02v-2.98h1.62c1.9 0 2.33.1 2.92.7.55.54.8 1.22.8 2.24 0 .96-.3 1.78-.82 2.3-.6.6-1.1.7-2.93.7h-1.6zm3.32 1.67c.52-.35.74-.86.74-1.68 0-.83-.22-1.33-.74-1.68-.3-.2-.5-.24-1.2-.24h-.83v1.84c0 1.02.02 1.88.06 1.92.04.04.42.07.84.07.6 0 .83-.05 1.12-.24zm2.23-.9v-2.17h1.18V-15.6h-1.18zm-15.35.54c-.2-.86-.46-1.65-.57-1.76-.15-.17-.33-.2-1.24-.2h-1.07l.07-1.13c.14-2.1.46-2.8 1.37-3.07.87-.26 2.85-.4 4.5-.33 1.92.1 2.4.2 2.92.66.53.5.73 1.13.8 2.52l.07 1.14h-.8c-.45 0-.85.05-.88.1-.12.18-.26.13-.33-.1-.04-.12-.18-.3-.32-.38-.35-.22-.66-.04-.75.44-.04.2-.1.34-.16.3-.05-.02-.34-.8-.63-1.7-.3-.93-.6-1.74-.65-1.8-.16-.2-.58-.18-.67.03-.07.17-1.1 6.4-1.12 6.7 0 .08-.04.14-.1.14-.04 0-.26-.7-.46-1.56zm15.35-3.88v-.42h1.18v.85h-1.18z"/><path d="M583.28-14.02c-.7-.14-1.3-.63-1.3-1.1 0-.24 1.04-.24 1.14 0 .1.27.66.5 1.05.42.5-.1.8-.5.8-1.14v-.53l-.33.27c-.68.57-1.9.4-2.42-.33-.7-.98-.46-2.77.45-3.32.7-.42 1.42-.4 1.97.07l.32.26v-.28c0-.27.02-.28.56-.25l.56.04v2.33c0 2.15-.02 2.37-.22 2.7-.38.67-1.54 1.05-2.58.85zm1.14-2.7c.16-.08.36-.3.43-.48.18-.44.1-1.43-.15-1.7-.46-.5-1.42-.32-1.64.33-.44 1.26.37 2.36 1.36 1.85zm-24.88 2.4c-.45-.12-.9-.6-1.06-1.15-.06-.22-.14-1-.18-1.7l-.07-1.32.78.04.8.04.24.95c.14.53.4 1.47.56 2.1l.3 1.15h-.5c-.26-.02-.66-.06-.86-.1zm2.7-.3c.04-.16.2-1.23.4-2.37.36-2.4.57-3.4.65-3.18.03.1.25.78.5 1.53.4 1.26.68 1.77.95 1.77.16 0 .4-.44.54-1 .06-.26.13-.5.16-.5.02 0 .13.1.25.22.3.28.5.27.8-.05.2-.22.35-.28.74-.28h.5v.93c0 1.13-.18 2.23-.4 2.56-.08.15-.3.35-.5.46-.3.2-.54.2-2.48.2h-2.16zm16.02-1.06c-.2-.1-.43-.3-.5-.46-.17-.33-.18-1-.02-1.3.15-.3.87-.58 1.64-.67.77-.1 1.1-.3 1.1-.64 0-.54-.95-.8-1.37-.38-.1.12-.2.26-.2.32s-.27.1-.6.1c-.3 0-.57-.02-.57-.05 0-.04.08-.23.17-.43.27-.57.86-.83 1.9-.83.95-.02 1.5.2 1.72.68.08.15.14.95.16 2l.04 1.7h-.56c-.5 0-.56 0-.56-.2v-.23l-.38.23c-.52.33-1.47.4-1.96.14zm1.97-.83c.2-.2.26-.38.26-.73v-.47l-.72.15c-1 .2-1.35.63-.88 1.1.3.3 1 .28 1.33-.06zm11.67.88c-.46-.13-1.15-.83-1.25-1.25-.14-.64-.26-.45-.26.4v.86h-1.08v-1.37c0-.75-.05-1.52-.1-1.7-.25-.67-1.18-.68-1.52-.02-.15.3-.2.66-.2 1.74v1.35h-1.05V-20l.5.03c.47.03.5.06.57.36.05.26.08.3.15.14.04-.1.3-.28.55-.4.6-.3 1.3-.22 1.76.2.28.25.34.4.38.9.05.63.17.7.27.2.08-.38.62-1.04 1.02-1.24 1.05-.54 2.47-.1 2.9.9l.12.33.17-.5c.23-.7.72-.95 1.77-.95.88 0 1.48.25 1.7.7.3.53.23.63-.36.63-.4 0-.53-.03-.53-.14 0-.38-.82-.62-1.28-.38-.26.14-.26.55 0 .7.1.07.56.2 1 .3 1.12.26 1.5.6 1.5 1.27-.02.97-.6 1.4-1.9 1.4-1 0-1.58-.24-1.87-.78l-.18-.34-.3.38c-.5.7-1.5.96-2.47.68zm5.38-.8c.47-.32.2-.78-.6-.98-.24-.07-.63-.17-.87-.23-.22-.06-.56-.24-.74-.4l-.33-.27.03.36.04.37-1.57.03-1.57.03v.26c0 .15.13.4.3.58.42.4 1.03.43 1.48.05.25-.22.47-.28 1.28-.34.73-.06.98-.04.98.05 0 .08.12.25.26.4.3.3.95.35 1.32.1zm-3.67-1.82c.04-.04 0-.24-.08-.43-.15-.35-.5-.55-.97-.55-.32 0-.9.53-.9.84 0 .2.07.22.96.22.54 0 1-.03 1-.08zm-22.68-.34v-2.98h1.62c1.5 0 1.67.02 2.17.25.94.43 1.43 1.34 1.43 2.66 0 1.03-.25 1.73-.84 2.3-.66.62-1.1.73-2.94.73h-1.44zm3.13 1.75c.78-.37 1.08-1.87.6-2.88-.3-.6-.7-.8-1.72-.82l-.8-.03-.02 1.94v1.93h.8c.5 0 .94-.06 1.15-.16zm2.3-.96v-2.18l.55.03.56.04.03 2.14.02 2.15h-1.17zm-15 2.07c0-.3-.68-2.94-.82-3.18l-.2-.32h-2.2l.08-1c.15-2.02.43-2.8 1.1-3.08 1-.4 3.22-.56 5.36-.4 1.66.12 2.05.25 2.5.8.42.5.57 1.1.65 2.43l.07 1.03h-.8c-.45 0-.85.05-.88.1-.12.18-.26.13-.33-.1-.04-.12-.18-.3-.32-.38-.33-.2-.65-.05-.75.38-.03.18-.1.32-.15.32-.05 0-.35-.77-.66-1.7-.6-1.84-.82-2.16-1.2-1.88-.15.1-.3.83-.72 3.48-.3 1.84-.58 3.4-.64 3.45-.05.05-.1.07-.1.04zm15-5.4v-.43h1.18v.85h-1.18z"/></g><path fill="#5fb12e" stroke="#fff" stroke-width="1.079" d="M21.23 47.72c-.17-.46.8-7.2 2.66-18.25 1.36-8.17 2.02-11.2 2.35-10.85.13.15 1.15 3.02 2.25 6.36 2.7 8.16 3.63 10 5.02 9.72.75-.14 1.84-2.13 2.3-4.2.58-2.57.75-2.7 2.04-1.7 1.53 1.15 2.63 1.07 4.14-.3 1.1-.97 1.45-1.1 2.92-1.1 3.03 0 3.12.08 3.12 2.5-.02 3-.57 9.5-1 11.6-.75 3.68-2.4 5.54-5.44 6.05-.95.17-5.88.37-10.96.45-7.6.13-9.27.08-9.4-.28z"/><path fill="#5fb12e" stroke="#fff" stroke-width="1.079" d="M9.05 47.88c-3.58-.7-5.42-3-6.16-7.68-.45-2.75-1.07-12.2-.83-12.45.1-.1 1.66-.24 3.45-.3 2.37-.08 3.42 0 3.83.3.6.47 5.8 19.33 5.54 20.07-.2.45-3.67.5-5.85.06z"/></g></svg>