<svg xmlns="http://www.w3.org/2000/svg" width="196mm" height="49mm" viewBox="0 0 196 49"><defs><clipPath><path fill="none" stroke="#000" stroke-width=".113" d="M-356.54 159.1H-89.8v199.37h-266.74z"/></clipPath></defs><g><path fill="#fff" d="M.44 24C.54 23.9 23.1 4.87 24.9 4.8c1.53-.06 13.53 5.36 21.4 11.57 1.65 1.3 1.87 3.87 1.52 5.72-.14.73.53-.42.3.5-.03.16-.1 4.03-.3 5.26-.14.82-.44-.84-.48-.74-.72 2.2-1.97 3.3-1.9 3.34 1.2 12.73-16.16 16.78-22.96 16.82-.52-.32-10.94 1.13-14.1-1.24-5.63-4.2-4.93-10.62-7.45-15.52.4-2.52-.1-4.12-.25-4.63z"/><g fill="#1665a9" stroke="#fff" stroke-width=".2"><path d="M120.44 48c-.73-.2-1.92-.78-2.64-1.25-1.45-.95-3.17-4.1-2.67-4.9.17-.27 1.35-.5 2.62-.5 1.92 0 2.57.27 3.75 1.53 1.43 1.54 3.76 2.02 5.84 1.22 1.18-.46 2.32-2.9 2.32-5v-1.8l-1.86 1.26c-1.35.93-2.53 1.26-4.38 1.26-5.44 0-8.5-3.13-8.94-9.1-.52-7.22 2.97-11.8 8.96-11.8 1.83 0 3 .33 4.36 1.25 1.77 1.2 1.86 1.2 1.86.25 0-.87.36-1 2.8-1h2.8V30.4c0 8.13-.17 11.42-.68 12.65-.9 2.13-3.4 4.24-5.83 4.9-2.18.62-6.4.64-8.3.06zm6.7-13.3c2.62-1.4 3.25-6.75 1.12-9.6-1.47-2-4.73-2.15-6.56-.32-1.24 1.24-1.32 1.6-1.13 4.94.17 3 .4 3.75 1.4 4.55 1.3 1.06 3.64 1.26 5.17.44zM6.2 46.08C3.26 44.6 2.15 41.63 1.6 33.7c-.26-3.7-.35-6.93-.2-7.18.17-.26 1.9-.47 3.85-.47 3.25 0 3.6.1 4 1.18.48 1.25 5.14 18.87 5.14 19.42 0 .73-6.45.28-8.16-.58zm14.3-.2c0-1.76 3.45-23.18 4.25-26.45.4-1.6.82-2.48.98-2.04.16.42 1.25 3.75 2.4 7.4 2.28 7.08 3.17 8.92 4.35 8.92 1 0 2.14-1.86 2.55-4.1.54-2.93 1.1-3.5 2.06-2.15 1.08 1.55 3.04 1.5 4.1-.12.7-1.08 1.23-1.28 3.35-1.28 1.75 0 2.6.23 2.8.77.16.42.05 3.87-.24 7.67-.56 7.44-1.15 9.15-3.8 11.14-1.35 1-2.2 1.08-12.13 1.24l-10.68.16zm78.8-5c-2.45-.58-3.6-1.4-4.5-3.2L93.98 36v2.17l-.02 2.16h-6.12l-.05-6.5c-.05-6.4-.06-6.45-.67-3.62-.77 3.6-2.75 6.65-5.5 8.47-2.1 1.38-2.3 1.4-10.97 1.57l-8.84.16V11.18l8.3.16c8.02.17 8.36.22 10.93 1.64 3.16 1.75 5.16 4.44 6.05 8.1l.65 2.68.04-2.17.03-2.18h6.13l.03 7c.02 3.87.16 6.68.3 6.26.17-.42.86-1.38 1.56-2.13 1.27-1.36 3.47-2.07 8.42-2.7 5.26-.7 5.33-4.86.07-4.86-2 0-2.4.18-3.15 1.52-.8 1.4-1.1 1.52-3.55 1.53-2.5 0-2.68-.08-2.68-1.26 0-1.8 2.66-4.6 5-5.3 4.74-1.4 11.97-.16 13.27 2.3.27.5.58 4.9.7 9.73l.2 8.8h-2.72c-1.87 0-2.8-.22-2.98-.72-.24-.6-.55-.56-1.9.2-1.93 1.1-5.1 1.57-7.23 1.07zm7.57-5.06c.5-.5 1.06-1.9 1.22-3.1l.3-2.17-1.75.35c-5.67 1.16-6.8 1.84-6.5 3.93.36 2.43 4.65 3.07 6.72 1zM77.5 34.04c2.5-1.3 3.43-3.5 3.4-7.98-.03-6.63-1.97-8.7-8.5-9.08l-3.95-.23V35.37l3.7-.24c2.03-.13 4.44-.63 5.34-1.1zm86.3 6.63c-3.18-.86-5.26-2.47-6.54-5.04l-1.07-2.17v6.87h-6.13v-7.4c0-6.7-.1-7.48-1.02-8.4-1.42-1.43-3.84-1.32-5.38.22-1.2 1.2-1.26 1.5-1.26 8.42v7.16H136.3V19.42h2.8c2.7 0 2.8.05 2.8 1.36v1.37l1.15-1.05c1.84-1.68 3.22-2.2 5.84-2.2 2.6 0 5.3 1.3 6.2 2.92.26.52.65 1.8.85 2.88l.37 1.94.9-1.95c1.67-3.7 5.16-5.8 9.68-5.8 4 0 6.96 1.8 8.84 5.37l.8 1.53.03-1.34c.03-1.75 1.82-3.97 3.92-4.85 2.4-1 8.18-.9 10.37.2 1.77.9 4.1 3.75 4.1 5.05 0 .5-.8.7-2.78.7-2.34 0-2.84-.17-3.1-1.03-.6-1.83-5.53-2.1-6.6-.35-.7 1.16.54 2.2 3.5 2.9 7.8 1.9 9.47 3.1 9.47 6.75 0 4.37-3.6 7.13-9.35 7.18-4.13.03-6.58-.84-8.47-3l-1.55-1.76-2 2c-2.58 2.57-6.42 3.48-10.3 2.42zm24.86-4.47c.38-.33.7-1.1.7-1.74 0-1.27-2.23-2.42-5.92-3.07-1.1-.2-2.98-.9-4.17-1.54l-2.17-1.2v2.98l-7.55.14-7.56.14.43 1.7c.6 2.33 3.3 3.5 6.1 2.66 1.1-.32 2.24-1.03 2.6-1.58.53-.88 1.2-1 5.47-1 4.53 0 4.9.08 5.36 1.14 1 2.24 4.72 3 6.7 1.35zm-17.68-9.32c0-.38-.47-1.3-1.06-2.04-2.04-2.6-6.6-1.5-7.77 1.85-.3.8.12.88 4.26.88 3.53 0 4.58-.16 4.58-.7zM15.7 37.15c-.45-1.76-1.3-5.13-1.87-7.5-1.6-6.5-1.17-6.15-7.38-6.15H1.1l.02-4.46c0-5.06 1.05-10.7 2.4-13.07 2.2-3.84 9.54-5.24 25.1-4.77 10.2.3 12.43.72 14.78 2.7 2.8 2.35 3.8 5.36 4.04 12.07l.22 6h-3.4c-1.85 0-3.84.3-4.4.64-.9.57-1.18.45-2.33-1-1.97-2.53-3.73-2.14-4.48 1-.18.78-.54 1.4-.8 1.4s-1.66-3.6-3.1-8.02c-1.45-4.42-2.85-8.44-3.1-8.93-.57-1.04-2.14-1.18-2.88-.26-.28.34-1.47 6.7-2.64 14.15-2.67 16.9-3.13 19.38-3.62 19.38-.2 0-.74-1.43-1.2-3.18zm72.33-21.5c-.15-.4-.2-1.5-.1-2.43.16-1.7.17-1.7 3.1-1.86l2.92-.15v5.16h-2.82c-1.95 0-2.9-.22-3.1-.72z"/><path d="M119.7 47.53c-2.27-1.05-4.03-2.8-4.55-4.52-.33-1.08-.22-1.14 2.47-1.14 2.32 0 3.04.23 4.1 1.28 1.26 1.27 3.72 1.7 5.62.96 1.24-.48 2.32-2.94 2.32-5.27v-2.07l-1.04 1.04c-2.3 2.3-6.55 2.7-9.73.9-6.47-3.62-5.87-16.27.9-19.1 3.32-1.38 8-.5 9.3 1.73.46.77.53.7.55-.5 0-1.37.1-1.4 2.82-1.4h2.8V30c0 5.83-.24 11.43-.52 12.46-1.38 4.96-9.4 7.67-15.04 5.07zm8.47-13.6c1.04-1.12 1.24-1.84 1.24-4.56 0-2.72-.2-3.45-1.23-4.55-1.56-1.66-5-1.86-6.36-.36-2.06 2.28-2.07 7.52 0 9.8 1.36 1.5 4.8 1.33 6.37-.34zM6.2 46.06c-3.26-1.63-4.1-4.4-4.78-15.56l-.23-3.94h7.9l2.46 9.3c1.35 5.13 2.57 9.72 2.7 10.2.2.8-.17.9-3.02.9-2.07 0-3.9-.32-5.03-.9zm18.25.52c-2.66-.13-3.96-.4-3.95-.8 0-1.08 3.55-22.94 4.24-26.13l.67-3.06 2.4 7.47c3.48 10.9 5.1 12.17 7.25 5.6 1.04-3.15 1.05-3.17 2-2.12 1.2 1.34 3.14 1.35 3.97.03.5-.82 1.2-1.02 3.52-1.02h2.88l-.23 5.48c-.34 7.65-1 10.74-2.7 12.42-2.43 2.43-5.55 2.76-20.05 2.13zm71.85-7.3c-.98-.87-1.87-2.07-2-2.7-.1-.6-.24-.02-.28 1.3l-.07 2.43h-5.6V19.42h5.6L94 26.7c.05 4 .18 6.8.32 6.24.6-2.53 3.3-4.17 7.62-4.65 3.94-.45 6.3-1.43 6.3-2.64 0-1.4-1.12-2.58-2.55-2.7-2.9-.2-3.65.05-4.5 1.56-.8 1.4-1.1 1.52-3.6 1.53h-2.75l.32-1.62c.18-.9.72-2.08 1.2-2.63 3.67-4.1 15.2-3.78 16.85.5.32.8.64 5.2.73 9.74l.15 8.3h-2.62c-1.8 0-2.7-.23-2.9-.73-.24-.6-.6-.55-2.2.26-1.3.66-2.98.98-5.12.98-2.83 0-3.4-.17-4.96-1.55zm10.8-3.82c.7-.83 1.14-2 1.14-3.1 0-1.78 0-1.78-1.92-1.46-5.38.92-6.25 1.45-6.25 3.82 0 2.7 4.88 3.2 7.02.74zm55.2 4.8c-1.9-.77-4.08-3-5.14-5.3l-.95-2.04v7.4h-6.13v-7.3c0-8.56-.36-9.54-3.56-9.54-1.52 0-2.2.3-3.02 1.34-.96 1.22-1.06 2.04-1.06 8.42v7.07h-6.12V19.42h2.8c2.7 0 2.8.05 2.8 1.36v1.37l1.16-1.05c2.57-2.34 5.94-2.86 9.34-1.45 1.8.76 3.75 3.9 3.78 6.1 0 .6.46.12 1.2-1.28 1.7-3.25 4.7-5.2 8.43-5.46 4.24-.3 7.2 1.1 9.26 4.3 1.38 2.2 1.54 2.3 1.54 1.1 0-1.95 2.26-4.36 4.74-5.02 2.64-.7 7.77-.4 9.75.58 1.6.8 3.07 2.6 3.6 4.43.3 1.08.2 1.14-2.48 1.14-2.35 0-2.85-.16-3.12-1-.63-1.98-5.4-2.27-6.57-.42-.85 1.34.4 2.26 4.42 3.23 2.02.5 4.5 1.3 5.5 1.8 4.55 2.28 3.7 8.8-1.43 11-1.94.82-8.15.92-10.18.15-1.73-.65-4.24-2.96-4.24-3.9 0-1.1-.72-.74-1.62.84-1.3 2.27-4.36 3.6-8.18 3.57-1.77 0-3.8-.25-4.5-.53zM188 36.7c1.48-.67 2-2.1 1.16-3.25-.33-.45-2.43-1.28-4.67-1.85-2.25-.56-4.83-1.47-5.74-2l-1.66-.96v2.5h-7.36c-4.47 0-7.5.2-7.7.52-.17.3.1 1.38.62 2.42 1.53 3.1 5.46 3.53 8.13.86 1.15-1.16 1.63-1.26 6.02-1.26 4.6 0 4.77.04 5.07 1.24.47 1.9 3.72 2.85 6.1 1.76zm-17.02-9.82c0-.38-.47-1.3-1.06-2.04-.8-1.03-1.5-1.34-3-1.34-1.1 0-2.35.14-2.8.32-.72.27-2.32 2.68-2.32 3.48 0 .15 2.07.28 4.6.28 3.53 0 4.58-.16 4.58-.7zM14.9 33.64c-.87-3.68-1.9-7.47-2.3-8.4l-.73-1.74H.96l.32-6C1.77 7.8 3.54 3.9 8.04 2.64 12.32 1.43 19.84.9 28.66 1.2c12.6.44 14.9 1.3 17.25 6.44 1.1 2.37 1.35 3.8 1.54 8.6l.22 5.73h-3.4c-1.85 0-3.84.3-4.4.64-.9.57-1.18.45-2.33-1-1.97-2.53-3.76-2.12-4.55 1-.2.78-.55 1.4-.8 1.4-.23 0-1.58-3.56-3-7.93-1.4-4.36-2.8-8.38-3.1-8.93-.6-1.12-2.14-1.3-2.94-.33-.4.48-5.7 31.48-5.7 33.3 0 .13-.22.23-.47.23-.26 0-1.2-3-2.06-6.7zm46.9-7.84V11.26h7.06c8.3 0 11.46.73 14.35 3.35 2.9 2.62 4.23 6.13 4.2 11.15 0 6.9-2.24 11.18-6.9 13.36-2.4 1.13-3.26 1.22-10.65 1.23H61.8zM77.9 34c2.2-1.44 3.47-4.98 3.17-8.78-.48-6-3.06-8.35-9.18-8.35h-3.45V35.36l4.03-.23c2.67-.15 4.5-.54 5.4-1.13zm10.44-20.2v-2.54h5.6V16.37h-5.6z"/><path d="M120.3 47.75c-2.4-.86-4.2-2.48-4.87-4.42l-.5-1.47h2.82c2.42 0 3 .2 3.84 1.28.8 1.02 1.45 1.28 3.28 1.28 3.34 0 4.8-1.6 4.74-5.2-.02-1.5-.16-2.42-.3-2.06-.43 1.06-4.06 2.66-6.03 2.66-5.6 0-9.4-4.93-8.83-11.47.55-6.46 5.04-10.3 10.77-9.24.97.2 2.36.94 3.1 1.68l1.32 1.33v-1.34c0-1.3.12-1.34 2.8-1.34h2.8v10.73c0 11.42-.28 13.14-2.66 15.67-2.2 2.34-8.4 3.32-12.3 1.93zm7.96-14.07c2.67-2.9 1.55-9.04-1.85-10.16-3.66-1.2-6.77 2.08-6.2 6.58.68 5.4 4.72 7.2 8.06 3.58zM6.43 46c-2.02-.92-3.07-2.37-4.04-5.6-.22-.68-.53-4.06-.7-7.53l-.34-6.3H9l2.5 9.56c1.4 5.26 2.62 9.85 2.74 10.2.36 1.03-5.37.8-7.83-.33zm19.3.62c-2.88-.1-5.23-.36-5.23-.56 0-.2.8-5.42 1.76-11.6 1.94-12.37 3.07-17.74 3.5-16.57.14.4 1.2 3.64 2.35 7.16 2.3 7 3.18 8.64 4.65 8.64 1.17 0 1.7-.92 2.52-4.46l.63-2.68 1.52 1.27c1.6 1.34 2.56 1.22 3.97-.48.43-.53 1.52-.8 3.3-.8h2.68L47.22 29c-.1 1.34-.26 4.4-.38 6.8-.26 5.45-1.55 8.7-3.95 9.93-1.83.96-7.85 1.27-17.18.92zm72-6.28c-3.13-1.26-4.4-6.58-2.24-9.34 1.18-1.5 2.9-2.14 7.87-2.92 1.95-.3 3.85-.8 4.2-1.1.92-.76.83-2.7-.16-3.53-1.9-1.6-6.82-.22-6.82 1.9 0 .5-.8.7-2.8.7-2.33 0-2.8-.15-2.8-.9 0-1.48 1.9-4.1 3.67-5.07 2.37-1.3 10.32-1.3 12.28-.02 2.62 1.72 2.83 2.55 3 11.73l.17 8.54h-2.68c-2.04 0-2.67-.2-2.67-.77 0-.98-.16-.97-2.55.25-2.1 1.07-6.46 1.34-8.48.52zm8.13-3.63c1.5-.67 2.38-2.44 2.38-4.74v-1.7l-2.17.5c-5.05 1.18-5.73 1.58-5.9 3.45-.27 2.76 2.48 3.97 5.7 2.5zm56.45 3.33c-2.42-1.05-4.03-2.63-5.15-5.05l-.94-2.04v7.4h-5.52l-.18-7.35c-.15-6.36-.3-7.5-1.15-8.43-1.4-1.55-4.36-1.45-5.92.2-1.1 1.2-1.2 1.8-1.43 8.43l-.22 7.13h-5.48V19.42h2.8c2.7 0 2.8.05 2.8 1.36v1.37l1.16-1.08c2.33-2.2 6.1-2.77 9.3-1.44 1.88.8 3.03 2.58 3.6 5.57l.35 1.9 1.17-2.48c3.23-6.98 13.5-7.74 17.6-1.3l1.4 2.22.3-1.54c.65-3.2 4.08-5.1 9.26-5.08 2.66 0 6.16 1.3 7.3 2.66.36.44.86 1.5 1.1 2.38l.46 1.58h-2.72c-2.28 0-2.75-.16-2.98-1-.6-2.3-6.08-2.6-6.77-.42-.47 1.46 1.13 2.75 4 3.22 4.05.68 7.47 2.25 8.28 3.83 1.1 2.08.95 4.15-.4 6.16-1.57 2.34-3.5 3.18-7.82 3.42-4.45.24-7.88-1.03-9.26-3.45-.48-.85-1-1.55-1.15-1.55-.15 0-.67.66-1.15 1.48-1.88 3.18-8.4 4.63-12.6 2.8zm26.9-4.1c.36-.5.66-1.08.66-1.3 0-1.12-2.27-2.4-5.67-3.2-2.08-.5-4.53-1.33-5.44-1.85l-1.66-.94v2.5h-15.43l.32 1.66c.17.92.92 2.2 1.68 2.87 1.12 1 1.76 1.16 3.6.95 1.28-.14 2.72-.7 3.36-1.3.92-.87 2.08-1.14 6.02-1.4l4.9-.36.3 1.26c.18.7.84 1.53 1.48 1.85 1.6.8 5.06.37 5.86-.74zm-18.23-9.24c-.05-2.4-3.18-4.08-5.94-3.17-1.45.48-3.23 2.56-3.23 3.77 0 .15 2.07.28 4.6.28 4.03 0 4.58-.1 4.57-.9zm-109.04-.73l.14-14.46 7.65.03c8.5 0 10.53.46 13.34 2.92 3.25 2.86 4 5 4 11.35 0 5.33-.07 5.75-1.58 8.4-1.1 1.96-2.33 3.3-4.04 4.35-2.43 1.52-2.5 1.53-11.05 1.7l-8.6.17zm16.05 7.95c2.5-1.84 3.3-4.04 3.08-8.46-.32-6.4-2.58-8.6-8.92-8.6h-3.7v18.48l4.05-.18c3.08-.14 4.38-.44 5.48-1.24zm10.36-4.04V19.42h5.6v20.91h-5.6zm-72.58 7c-.43-1.6-1.15-4.64-1.6-6.75-.45-2.1-1.24-4.5-1.75-5.35l-.92-1.53H1.36l.1-5.58c.13-6.68 1.5-11.9 3.5-13.5C9.5.63 36.14-.06 42.1 3.23c1.53.85 2.47 1.92 3.57 4.06 1.3 2.57 1.5 3.58 1.74 8.8l.27 5.9h-3.42c-1.88 0-3.9.25-4.48.56-.84.45-1.15.4-1.5-.23-.85-1.5-2.04-2.37-3.25-2.37-.98 0-1.34.4-1.83 2.04-.35 1.12-.8 2.04-1 2.04-.22 0-1.45-3.38-2.75-7.5-1.3-4.15-2.64-8.1-3-8.8-.73-1.5-2.45-1.92-3.34-.85-.42.52-5.67 30.8-5.67 32.8 0 .1-.2.17-.44.17-.25 0-.8-1.32-1.24-2.93zm72.58-23.07v-2.54h5.6V16.37h-5.6z"/><path d="M120.4 47.72c-2.55-.8-5.02-3.22-5.02-4.87 0-.84.37-1 2.57-1 2.17 0 2.77.23 3.77 1.4.96 1.1 1.64 1.4 3.35 1.4 3.02 0 4.6-1.85 4.6-5.4v-2.58l-1.53 1.28c-2.95 2.48-7.5 2.36-10.5-.27-3.4-3-4.18-9.7-1.64-14.34 2.4-4.4 8.87-5.77 12.22-2.56l1.44 1.38V20.8c0-1.33.1-1.38 2.8-1.38h2.8V29.5c-.02 10.62-.34 13.27-1.9 15.35-2.2 2.94-8.42 4.32-12.97 2.87zm6.64-12.7c1.76-.92 2.62-2.77 2.62-5.65 0-2.9-.86-4.74-2.62-5.65-2.02-1.05-3.2-.9-4.97.58-2.73 2.3-2.75 7.3-.06 10 1.63 1.6 2.95 1.8 5.04.72zM7.4 46.42c-1.98-.6-4.03-2.93-4.76-5.46-.3-1.05-.7-4.72-.86-8.17l-.32-6.3 3.77.16 3.77.16 2.4 8.92c1.3 4.9 2.53 9.45 2.7 10.08.28 1.08.15 1.14-2.4 1.1-1.47-.03-3.4-.26-4.3-.5zm19.58.2l-6.53-.2.28-1.64c.16-.9.74-4.74 1.3-8.53 1.6-10.62 3.14-18.48 3.57-18.02.2.23 1.1 2.76 1.98 5.62 2.5 8.16 3.35 9.85 4.9 9.85 1.46 0 2.4-1.6 3.08-5.26l.36-1.95 1.37 1.3c1.7 1.63 2.1 1.63 3.6.04.96-1.03 1.7-1.28 3.73-1.28h2.52l-.23 6.76c-.28 8.15-1.3 11.17-4.13 12.36-2.12.88-7.22 1.18-15.82.93zm70.2-6.77c-.9-.55-1.88-1.45-2.17-2-.8-1.5-.65-5.28.25-6.58 1.17-1.67 2.42-2.18 7.23-2.96 2.4-.37 4.66-.95 5.05-1.28 1.78-1.48-.04-4.54-2.7-4.54-1.85 0-3.74 1.1-4.06 2.38-.27 1.07-.6 1.2-3.1 1.2-2.8 0-2.8 0-2.47-1.4.9-3.87 4.76-5.9 10.5-5.58 3.8.2 5.86 1.04 7.2 2.9.77 1.07.93 2.55 1.05 9.8l.15 8.56h-2.68c-2.04 0-2.67-.2-2.67-.77 0-.96.04-.97-2.63.24-2.9 1.33-6.82 1.35-8.95.05zm10.14-4.1c.57-.7.92-2 .92-3.35 0-2.18-.02-2.2-1.4-1.77-.78.24-2.23.58-3.23.74-1 .17-2.23.6-2.74.98-1.2.88-1.18 3.37.04 4.3 1.42 1.05 5.27.5 6.42-.9zm54.73 4.13c-2.55-1.18-4.22-2.97-5.12-5.5l-.7-1.95-.02 3.95-.02 3.95H150.65l-.17-7.34c-.18-8.4-.63-9.5-3.84-9.5-3.95 0-4.73 1.8-4.74 10.84v6h-5.63L136.4 30l.15-10.33 2.67-.15c2.66-.15 2.68-.14 2.68 1.35v1.5l1.55-1.43c1.83-1.72 3.87-2.25 6.87-1.8 2.5.37 4.67 2.1 5.08 4.06.95 4.53.75 4.3 1.76 2.06 1.64-3.66 5.77-6.34 9.8-6.35 3.4 0 6.82 2.23 8.63 5.62.82 1.55.95 1.63.97.6.04-1.87 1.44-4.1 3.17-4.98 3.42-1.77 10.1-1.4 12.6.7.6.48 1.42 1.74 1.85 2.8l.77 1.9h-2.7c-2.3 0-2.76-.17-3.2-1.15-1.03-2.38-6.87-2.3-6.87.1 0 1.43 1.7 2.37 6.05 3.36 5 1.13 6.96 2.8 6.96 5.95 0 4.76-3.8 7.34-10.22 6.93-4.28-.27-6.73-1.45-7.9-3.8l-.8-1.56-1.7 2.03c-.95 1.12-2.48 2.35-3.4 2.74-2.37 1-6.7.86-9.13-.26zm26.8-3.63c2.2-2.2.9-3.43-5.36-5.1-4.02-1.07-5-1.55-6.28-3.06-.54-.64-.6-.45-.33 1.14l.32 1.9h-15.55l.32 1.67c.7 3.74 5.33 5.26 8.32 2.73 1.2-1 2.26-1.3 6.15-1.6l4.7-.36.48 1.3c.64 1.68 1.87 2.37 4.25 2.4 1.25 0 2.27-.35 2.94-1.02zm-17.95-10.2c-1.12-3.23-5.9-3.92-8.06-1.2-1.9 2.44-1.5 2.73 3.78 2.73h4.82zm-109.1 0V11.77h7.74c9.13 0 11.14.48 14 3.34 2.63 2.63 3.78 5.9 3.78 10.77 0 4.63-1.37 8.52-3.9 11.04-2.8 2.83-5.28 3.43-14.04 3.43H61.8zm15.88 8.02c2.46-1.64 3.52-4.05 3.52-8.02 0-3.97-1.06-6.38-3.52-8.02-1.43-.96-2.42-1.16-5.74-1.16h-4v8.84c0 4.87.15 9 .34 9.2.18.18 2 .33 4 .33 2.96 0 4-.22 5.4-1.16zm10.66-4.2V19.43h5.6v20.91h-5.6zm-73.6 2.5c-1-4.08-2.22-7.87-2.7-8.4-.76-.84-1.62-.98-5.98-.98H.96l.37-5.4C2 7.55 3.53 4.14 7.87 2.85 12.07 1.6 21.57.9 29.4 1.28c9.28.44 11.64.97 14.07 3.17 2.6 2.34 3.57 5.35 3.92 12.04l.28 5.47H43.8c-2.12 0-4 .23-4.18.5-.5.83-1.18.6-1.53-.5-.2-.58-.88-1.4-1.54-1.84-1.66-1.1-3.17-.2-3.6 2.1-.18.97-.53 1.65-.77 1.5-.26-.15-1.62-3.87-3.04-8.26-1.42-4.4-2.83-8.28-3.14-8.65-.8-.96-2.8-.82-3.23.23-.35.82-5.3 30.68-5.35 32.14 0 .34-.22.62-.46.62-.26 0-1.27-3.35-2.27-7.44zm73.6-18.56v-2.03h5.6v4.09h-5.6z"/><path d="M121.6 47.94c-3.4-.65-6.22-3.04-6.22-5.28 0-1.13 5-1.15 5.43 0 .52 1.3 3.2 2.4 5.08 2.04 2.44-.46 3.78-2.4 3.78-5.5v-2.53l-1.53 1.3c-3.26 2.73-9.13 1.94-11.63-1.58-3.35-4.7-2.18-13.3 2.17-15.93 3.35-2.03 6.83-1.92 9.47.3l1.52 1.3V20.7c0-1.3.1-1.33 2.68-1.18l2.68.15V30.9c0 10.32-.08 11.36-1.03 13-1.83 3.17-7.42 5-12.4 4.04zM127.07 35c.8-.4 1.73-1.44 2.08-2.3.88-2.1.45-6.85-.74-8.16-2.2-2.44-6.8-1.53-7.87 1.57-2.1 6.04 1.8 11.35 6.53 8.9zM7.76 46.44c-2.2-.5-4.36-2.84-5.08-5.44-.3-1.07-.7-4.76-.88-8.2l-.34-6.3 3.73.16 3.72.16 1.2 4.6c.68 2.5 1.9 7.05 2.7 10.06l1.47 5.5-2.4-.07c-1.3-.02-3.17-.23-4.15-.46zm13-1.4c.14-.76.94-5.87 1.8-11.34 1.8-11.62 2.78-16.37 3.18-15.3.16.42 1.25 3.72 2.43 7.33 1.98 6.05 3.28 8.48 4.56 8.48.8 0 1.93-2.07 2.6-4.7.32-1.34.68-2.43.78-2.43.12 0 .67.46 1.23 1.02 1.35 1.35 2.35 1.28 3.78-.26.94-1 1.7-1.28 3.56-1.28h2.36v4.46c0 5.4-.8 10.67-1.84 12.27-.42.64-1.5 1.6-2.4 2.16-1.47.9-2.62 1-11.94 1H20.52zM97.53 40c-.98-.5-2.06-1.5-2.4-2.2-.8-1.57-.85-4.82-.1-6.2.74-1.4 4.16-2.82 7.85-3.24 3.7-.43 5.36-1.37 5.36-3.04 0-2.6-4.6-3.83-6.64-1.8-.56.56-1.02 1.25-1.02 1.53s-1.26.5-2.8.5c-1.54 0-2.8-.13-2.8-.3 0-.16.37-1.1.83-2.06 1.3-2.7 4.14-3.96 9.12-3.98 4.55-.03 7.15 1 8.25 3.3.37.76.67 4.56.77 9.55l.16 8.3-2.68-.02c-2.37 0-2.67-.12-2.67-1.06V38.2l-1.8 1.12c-2.52 1.56-7.08 1.88-9.42.66zm9.45-3.96c.95-.95 1.26-1.8 1.26-3.48V30.3l-3.45.7c-4.8.96-6.45 3.02-4.22 5.25 1.5 1.5 4.8 1.4 6.4-.23zm55.95 4.25c-2.18-.63-5.52-4-5.96-6-.68-3.08-1.3-2.16-1.3 1.95v4.1h-5.09V33.8c0-3.6-.25-7.26-.55-8.12-1.12-3.23-5.6-3.3-7.23-.1-.7 1.4-.9 3.1-.9 8.27v6.5h-5.1V19.35l2.42.17c2.24.14 2.45.27 2.73 1.68.24 1.22.38 1.36.7.67.2-.48 1.4-1.37 2.64-1.97 2.92-1.42 6.17-1.04 8.45 1 1.32 1.18 1.6 1.87 1.8 4.3.27 3.03.8 3.4 1.32.9.35-1.74 2.97-4.9 4.88-5.88 5.03-2.58 11.86-.44 13.84 4.33l.64 1.57.8-2.42c1.12-3.28 3.47-4.54 8.48-4.52 4.2 0 7.07 1.18 8.18 3.34 1.32 2.54 1.03 3.02-1.8 3.02-1.9 0-2.55-.2-2.55-.74 0-1.82-3.96-2.97-6.16-1.8-1.25.67-1.3 2.62-.07 3.38.5.32 2.72.98 4.9 1.47 5.34 1.18 7.2 2.76 7.13 6.03-.1 4.67-2.83 6.68-9.13 6.7-4.8 0-7.56-1.13-8.94-3.72l-.9-1.63-1.4 1.84c-2.47 3.25-7.25 4.53-11.87 3.2zm25.8-3.8c2.28-1.6.98-3.78-2.83-4.76-1.2-.3-3.07-.78-4.18-1.07-1.1-.3-2.74-1.13-3.62-1.87l-1.6-1.35.17 1.75.18 1.75-7.53.14-7.52.14v1.3c0 .76.62 1.92 1.5 2.8 1.94 1.94 4.88 2.05 7.02.25 1.2-1 2.26-1.3 6.16-1.6 3.47-.26 4.7-.2 4.7.24 0 .33.57 1.16 1.26 1.85 1.48 1.48 4.5 1.7 6.28.46zm-17.57-8.77c.13-.2-.07-1.13-.46-2.04-.72-1.7-2.38-2.67-4.64-2.67-1.56 0-4.26 2.55-4.26 4.03 0 1 .28 1.06 4.56 1.06 2.5 0 4.67-.18 4.8-.4zM62.32 26.05V11.77h7.78c7.12 0 8 .1 10.4 1.22 4.48 2.08 6.82 6.47 6.82 12.78 0 4.96-1.22 8.3-4.04 11.03-3.1 3-5.18 3.53-14.04 3.53h-6.92zm15.02 8.4c3.7-1.76 5.17-8.93 2.82-13.8-1.34-2.77-3.36-3.73-8.2-3.9l-3.77-.14-.15 9.32-.14 9.3h3.9c2.44 0 4.5-.28 5.54-.77zm11-4.6V19.37l2.68.15 2.68.15.14 10.33.13 10.33h-5.63zM16.4 39.73c0-1.5-3.24-14.1-3.92-15.25l-.88-1.5H1.02l.34-4.7c.68-9.77 2-13.53 5.25-14.83 4.73-1.88 15.43-2.7 25.72-1.93 7.95.6 9.8 1.18 12.02 3.87 1.95 2.35 2.7 5.2 3.06 11.6l.28 4.97H43.8c-2.12 0-4 .23-4.18.5-.5.83-1.18.6-1.53-.5-.2-.58-.88-1.4-1.54-1.84-1.58-1.03-3.1-.25-3.57 1.84-.2.84-.53 1.53-.76 1.53-.23 0-1.65-3.7-3.15-8.24-2.9-8.74-3.9-10.3-5.73-8.96-.7.5-1.43 4.02-3.46 16.7-1.4 8.83-2.76 16.28-3.02 16.54-.26.27-.47.35-.47.2zM88.35 13.8v-2.03h5.6v4.09h-5.6z"/></g><path fill="#5fb12e" stroke="#fff" stroke-width="1.079" d="M20.54 46.52c-.18-.46.8-7.2 2.66-18.25 1.36-8.16 2.02-11.2 2.35-10.84.14.15 1.15 3 2.26 6.36 2.7 8.15 3.64 9.97 5.03 9.7.75-.14 1.84-2.13 2.3-4.2.58-2.56.74-2.7 2.04-1.7 1.52 1.15 2.62 1.08 4.13-.3 1.1-.97 1.45-1.1 2.93-1.1 3.03 0 3.12.08 3.12 2.5-.02 3-.57 9.5-1 11.6-.75 3.7-2.42 5.54-5.44 6.06-.94.16-5.88.36-10.96.45-7.58.13-9.26.08-9.4-.28z"/><path fill="#5fb12e" stroke="#fff" stroke-width="1.079" d="M8.36 46.7c-3.58-.72-5.42-3.02-6.17-7.7-.44-2.75-1.06-12.2-.82-12.44.1-.1 1.65-.24 3.45-.3 2.37-.1 3.42 0 3.82.3.6.47 5.82 19.33 5.54 20.06-.18.46-3.66.5-5.84.07z"/></g></svg>